<svg xmlns="http://www.w3.org/2000/svg" viewBox="0 0 900 620">
  <defs>
    <linearGradient id="metal" x1="0" y1="0" x2="1" y2="1"><stop stop-color="#fff"/><stop offset=".18" stop-color="#1a1a20"/><stop offset=".42" stop-color="#f5f5ff"/><stop offset=".68" stop-color="#34303d"/><stop offset="1" stop-color="#fff"/></linearGradient>
    <linearGradient id="glass" x1="0" y1=".2" x2="1" y2=".8"><stop stop-color="#eff7ff" stop-opacity=".2"/><stop offset=".5" stop-color="#7a44ff" stop-opacity=".62"/><stop offset="1" stop-color="#b7ff1a" stop-opacity=".18"/></linearGradient>
    <filter id="glow"><feGaussianBlur stdDeviation="8" result="b"/><feMerge><feMergeNode in="b"/><feMergeNode in="SourceGraphic"/></feMerge></filter>
  </defs>
  <rect width="900" height="620" fill="none"/>
  <ellipse cx="462" cy="522" rx="330" ry="48" fill="#000" opacity=".68"/>
  <path d="M248 238 790 122 710 484 166 519Z" fill="url(#glass)" stroke="#d9d9ff" stroke-opacity=".55" stroke-width="3"/>
  <path d="M318 174 784 168 602 468Z" fill="#211053" opacity=".78" stroke="#8f62ff" stroke-width="3"/>
  <path d="M208 455 338 342 407 508Z" fill="#cad4de" opacity=".56" stroke="#fff" stroke-opacity=".72" stroke-width="3"/>
  <path d="M176 520 793 483" stroke="#fff" stroke-opacity=".38"/>
  <g filter="url(#glow)">
    <path d="M358 110c54-58 143 4 101 76-26 45-88 59-79 117 8 50 69 66 111 35 49-36 62-123 134-116 72 8 85 106 23 145-59 37-142-2-172 61-29 62 28 111 85 114" fill="none" stroke="url(#metal)" stroke-width="42" stroke-linecap="round"/>
    <path d="M352 114c54-49 118 9 77 59-30 37-87 54-80 124 8 78 93 105 156 62 56-39 71-116 124-104 39 9 40 65 3 86-55 31-141 3-187 71-43 65 2 126 86 148" fill="none" stroke="#fff" stroke-opacity=".35" stroke-width="7" stroke-linecap="round"/>
  </g>
  <circle cx="812" cy="505" r="46" fill="url(#metal)" opacity=".92"/>
  <path d="M155 416c130-68 217-88 325-76 109 12 203 40 318-16" fill="none" stroke="#b6ff19" stroke-opacity=".42" stroke-width="5"/>
</svg>
